<mxfile host="app.diagrams.net" modified="2024-05-27T14:34:06.561Z" agent="Mozilla/5.0 (Windows NT 10.0; Win64; x64) AppleWebKit/537.36 (KHTML, like Gecko) Chrome/121.0.0.0 Safari/537.36" etag="QS4MqkddAiBemAGuJYxU" version="24.4.9" type="device">
  <diagram name="PÃ¡gina-1" id="-n_d_zlpR1-uxlFgX_Yg">
    <mxGraphModel dx="1434" dy="782" grid="1" gridSize="10" guides="1" tooltips="1" connect="1" arrows="1" fold="1" page="1" pageScale="1" pageWidth="827" pageHeight="1169" math="0" shadow="0">
      <root>
        <mxCell id="0" />
        <mxCell id="1" parent="0" />
        <mxCell id="o7ZDu4foHG2S8zIQ1f8W-1" value="" style="rounded=0;whiteSpace=wrap;html=1;" vertex="1" parent="1">
          <mxGeometry x="220" y="10" width="450" height="800" as="geometry" />
        </mxCell>
        <mxCell id="o7ZDu4foHG2S8zIQ1f8W-2" value="" style="rounded=0;whiteSpace=wrap;html=1;" vertex="1" parent="1">
          <mxGeometry x="264.5" y="120" width="361" height="40" as="geometry" />
        </mxCell>
        <mxCell id="o7ZDu4foHG2S8zIQ1f8W-3" value="&lt;font style=&quot;vertical-align: inherit;&quot;&gt;&lt;font style=&quot;vertical-align: inherit;&quot;&gt;&lt;font style=&quot;vertical-align: inherit;&quot;&gt;&lt;font style=&quot;vertical-align: inherit;&quot;&gt;&lt;font style=&quot;vertical-align: inherit;&quot;&gt;&lt;font style=&quot;vertical-align: inherit;&quot;&gt;CADASTRO DE PRODUTO&lt;/font&gt;&lt;/font&gt;&lt;/font&gt;&lt;/font&gt;&lt;/font&gt;&lt;/font&gt;" style="text;html=1;align=center;verticalAlign=middle;whiteSpace=wrap;rounded=0;" vertex="1" parent="1">
          <mxGeometry x="340" y="30" width="180" height="40" as="geometry" />
        </mxCell>
        <mxCell id="o7ZDu4foHG2S8zIQ1f8W-4" value="&lt;font style=&quot;vertical-align: inherit;&quot;&gt;&lt;font style=&quot;vertical-align: inherit;&quot;&gt;TIPO DO PRODUTO&lt;/font&gt;&lt;/font&gt;" style="text;html=1;align=center;verticalAlign=middle;whiteSpace=wrap;rounded=0;" vertex="1" parent="1">
          <mxGeometry x="264.5" y="90" width="130" height="30" as="geometry" />
        </mxCell>
        <mxCell id="o7ZDu4foHG2S8zIQ1f8W-5" value="" style="rounded=0;whiteSpace=wrap;html=1;" vertex="1" parent="1">
          <mxGeometry x="262.25" y="270" width="365.5" height="40" as="geometry" />
        </mxCell>
        <mxCell id="o7ZDu4foHG2S8zIQ1f8W-7" value="&lt;font style=&quot;vertical-align: inherit;&quot;&gt;&lt;font style=&quot;vertical-align: inherit;&quot;&gt;QUANTIDADE:&lt;/font&gt;&lt;/font&gt;" style="text;html=1;align=center;verticalAlign=middle;whiteSpace=wrap;rounded=0;" vertex="1" parent="1">
          <mxGeometry x="262.25" y="240" width="117.75" height="30" as="geometry" />
        </mxCell>
        <mxCell id="o7ZDu4foHG2S8zIQ1f8W-8" value="" style="rounded=0;whiteSpace=wrap;html=1;" vertex="1" parent="1">
          <mxGeometry x="325" y="480" width="240" height="70" as="geometry" />
        </mxCell>
        <mxCell id="o7ZDu4foHG2S8zIQ1f8W-9" value="&lt;font style=&quot;vertical-align: inherit;&quot;&gt;&lt;font style=&quot;vertical-align: inherit;&quot;&gt;CADASTRO&lt;/font&gt;&lt;/font&gt;" style="text;html=1;align=center;verticalAlign=middle;whiteSpace=wrap;rounded=0;" vertex="1" parent="1">
          <mxGeometry x="402" y="490" width="86" height="50" as="geometry" />
        </mxCell>
      </root>
    </mxGraphModel>
  </diagram>
</mxfile>
